<svg version="1.1" xmlns="http://www.w3.org/2000/svg" viewBox="0 0 728 800.3333333333334" width="1456" height="1600.6666666666667">
  <!-- svg-source:excalidraw -->
  
  <defs>
    <style>
      @font-face {
        font-family: "Virgil";
        src: url("https://excalidraw.com/Virgil.woff2");
      }
      @font-face {
        font-family: "Cascadia";
        src: url("https://excalidraw.com/Cascadia.woff2");
      }
    </style>
  </defs>
  <rect x="0" y="0" width="728" height="800.3333333333334" fill="#ffffff"></rect><g stroke-linecap="round" transform="translate(12 52.33333333333333) rotate(0 353 151.5)"><path d="M0.12 0.42 C169.77 -2.73, 339.41 -2.94, 705.23 0.19 M0.31 0.37 C254.9 -2.29, 509.92 -2.17, 706.31 0.36 M706.72 -0.8 C704.51 86.53, 705.17 170.56, 705.31 303.85 M706.31 -0.21 C706.04 120.79, 705.19 241.94, 706.48 303.36 M705.82 303 C537.87 305.67, 369.46 304.5, -0.29 302.56 M706.26 303.24 C468.44 300.44, 231.59 300.17, -0.13 302.92 M-0.9 303.42 C-1.68 193.79, -0.8 83.81, -1.29 0.55 M-0.43 303.37 C1.2 235.94, 0.49 167.91, -0.35 -0.23" stroke="#000000" stroke-width="1" fill="none"></path></g><g stroke-linecap="round" transform="translate(28 64.33333333333333) rotate(0 14.5 23.5)"><path d="M14.8 1.01 C21.13 7.86, 26.34 15.95, 29.35 23.33 M14.42 0.38 C19.51 6.62, 24.08 15.15, 29.5 24.48 M30.14 25.65 C22.96 31.19, 21.76 37.13, 16.93 47.03 M28.91 24.82 C24.63 29.35, 22.39 37.29, 14.39 46.53 M13.96 45.26 C11.54 39.63, 5.2 29.56, -1.66 23.8 M14.14 47.22 C10.35 40.11, 7.54 34.86, 0.29 24.77 M-1.48 22.41 C4.17 13.98, 12.16 5.93, 14.69 -1.03 M0.26 24.85 C6.32 16.22, 11.53 7.27, 14.05 0.5" stroke="#000000" stroke-width="1" fill="none"></path></g><g transform="translate(69 74.33333333333333) rotate(0 89 13)"><text x="0" y="18" font-family="Virgil, Segoe UI Emoji" font-size="20px" fill="#000000" text-anchor="start" style="white-space: pre;" direction="ltr">Ethereum (aka L1)</text></g><g stroke-linecap="round"><g transform="translate(29.287978697968697 89.67306297788706) rotate(0 6.223093584924982 3.5893430664110895)"><path d="M1.15 0.91 C3.24 1.87, 10.46 4.79, 12.16 5.8 M0.29 0.34 C2.23 1.42, 8.84 5.49, 11.06 6.84" stroke="#000000" stroke-width="1" fill="none"></path></g></g><g stroke-linecap="round"><g transform="translate(43.17432192191484 95.82682608341177) rotate(0 7.084738283413458 -4.516087852045899)"><path d="M-0.83 0.49 C1.46 -1.06, 10.4 -8.2, 12.81 -9.53 M0.94 -0.29 C3.66 -1.72, 13.01 -7.04, 15 -8.53" stroke="#000000" stroke-width="1" fill="none"></path></g></g><g stroke-linecap="round" transform="translate(97 133.33333333333331) rotate(0 97.5 79.5)"><path d="M0.15 0.57 C58.6 -1.49, 117.83 -1.53, 196.3 -0.12 M-0.17 0.05 C52.99 -0.96, 105.68 -0.96, 194.54 0.11 M193.84 0.75 C193.89 39.34, 194.5 77.38, 194.27 157.57 M195.06 -0.19 C195.3 46.37, 195.45 90.69, 194.43 158.28 M196.24 158.59 C126.75 158.14, 57.47 156.9, -0.76 159.42 M194.88 158.64 C118.68 159.27, 44.94 160.03, -0.07 159.84 M0.52 160.56 C1.92 100.83, 0.65 42.76, 1.32 -1.48 M-0.52 158.88 C0.46 113.73, -1.24 70.37, -0.13 0.2" stroke="#000000" stroke-width="1" fill="none"></path></g><g transform="translate(113 196.33333333333331) rotate(0 82.5 13)"><text x="0" y="18" font-family="Virgil, Segoe UI Emoji" font-size="20px" fill="#000000" text-anchor="start" style="white-space: pre;" direction="ltr">Rollup Contracts</text></g><g stroke-linecap="round" transform="translate(425.5 128.83333333333331) rotate(0 110.5 79.5)"><path d="M1.65 0.53 C59.61 2.31, 121.47 0.93, 222.09 -1.59 M-0.34 -0.27 C88.22 0.43, 177.49 0.77, 220.36 0.6 M219.72 -0.4 C221.19 43.01, 221.6 81.38, 220.58 160.91 M220.36 0.1 C218.86 51.71, 220.38 103.85, 221.38 159.96 M220.21 160.28 C170.37 157.61, 117.81 157.7, -1.07 160.66 M220.61 158.59 C147.37 159.57, 73.4 159.68, 0.82 159.36 M0.66 160.68 C-2.3 119.67, 0.48 79.18, 1.71 -0.21 M-0.72 159.22 C-1.34 118.58, -0.94 78.9, -0.19 0.33" stroke="#000000" stroke-width="1" fill="none"></path></g><g transform="translate(434 198.33333333333331) rotate(0 98.5 13)"><text x="0" y="18" font-family="Virgil, Segoe UI Emoji" font-size="20px" fill="#000000" text-anchor="start" style="white-space: pre;" direction="ltr">Challenge Contracts</text></g><g stroke-linecap="round"><g transform="translate(420 210.33333333333331) rotate(0 -64.59087126862721 0.19631518413052618)"><path d="M0.99 0.33 C-20.63 0.29, -107.64 -0.03, -129.83 -0.06 M0.04 -0.54 C-21.62 -0.49, -108.52 0.66, -130.17 0.93" stroke="#000000" stroke-width="1" fill="none"></path></g><g transform="translate(420 210.33333333333331) rotate(0 -64.59087126862721 0.19631518413052618)"><path d="M-101.55 -7.74 C-111.97 -8.28, -119.68 -1.33, -129.53 1.73 M-103.04 -9.98 C-113.13 -6.3, -123.71 -1.07, -130 0.07" stroke="#000000" stroke-width="1" fill="none"></path></g><g transform="translate(420 210.33333333333331) rotate(0 -64.59087126862721 0.19631518413052618)"><path d="M-101.29 12.78 C-111.83 6.29, -119.61 7.3, -129.53 1.73 M-102.78 10.54 C-112.76 6.35, -123.44 3.69, -130 0.07" stroke="#000000" stroke-width="1" fill="none"></path></g></g><g stroke-linecap="round" transform="translate(10 367.3333333333333) rotate(0 353 211.5)"><path d="M0.43 0.49 C249.03 -2.51, 499.31 -2.86, 706.36 -0.51 M706.03 -0.14 C704.98 140.31, 704.78 281.56, 706.69 423.73 M706.49 423.54 C564.36 425.97, 422.27 425.16, -0.46 423.63 M0.07 422.58 C-0.74 284.41, -0.17 146.51, 1 -0.11" stroke="#000000" stroke-width="1.5" fill="none" stroke-dasharray="1.5 7"></path></g><g stroke-linecap="round" transform="translate(18 374.3333333333333) rotate(0 15 15.5)"><path d="M22.06 1.43 C24.83 2.49, 27.43 6.28, 28.54 9.29 C29.66 12.3, 29.68 16.44, 28.73 19.49 C27.79 22.54, 25.27 25.65, 22.87 27.57 C20.46 29.49, 17.32 31.32, 14.29 31.01 C11.25 30.69, 7 28, 4.64 25.68 C2.28 23.37, 0.59 20.38, 0.13 17.11 C-0.32 13.83, 0.02 8.72, 1.94 6.02 C3.85 3.31, 8.18 1.28, 11.62 0.87 C15.06 0.46, 20.33 2.76, 22.57 3.55 C24.82 4.34, 24.91 5.65, 25.08 5.63 M18.81 1.84 C22.18 2.42, 27.66 4.39, 29.3 6.86 C30.95 9.32, 29.2 13.02, 28.68 16.62 C28.16 20.23, 28.64 26.02, 26.18 28.48 C23.72 30.95, 17.34 31.72, 13.91 31.42 C10.48 31.13, 8.02 29.05, 5.59 26.72 C3.15 24.39, -0.31 20.51, -0.71 17.45 C-1.11 14.38, 1.19 11, 3.17 8.33 C5.14 5.66, 8.48 2.73, 11.14 1.41 C13.81 0.1, 17.74 0.59, 19.14 0.45 C20.55 0.32, 19.55 0.25, 19.57 0.59" stroke="#000000" stroke-width="1" fill="none"></path></g><g transform="translate(19 377.3333333333333) rotate(0 14 13)"><text x="0" y="18" font-family="Virgil, Segoe UI Emoji" font-size="20px" fill="#000000" text-anchor="start" style="white-space: pre;" direction="ltr">OP</text></g><g transform="translate(54 376.3333333333333) rotate(0 145.5 13)"><text x="0" y="18" font-family="Virgil, Segoe UI Emoji" font-size="20px" fill="#000000" text-anchor="start" style="white-space: pre;" direction="ltr">Optimistic Ethereum (aka L2)</text></g><g stroke-linecap="round" transform="translate(63 450.3333333333333) rotate(0 112.5 94.5)"><path d="M114.84 0.46 C128.34 -0.83, 143.75 3.35, 156.87 8.08 C169.98 12.81, 183.51 20.31, 193.51 28.84 C203.51 37.38, 211.66 48.34, 216.87 59.3 C222.09 70.27, 224.64 82.88, 224.78 94.62 C224.93 106.37, 222.94 118.73, 217.74 129.78 C212.54 140.82, 203.59 152.43, 193.58 160.9 C183.57 169.38, 170.45 175.9, 157.68 180.64 C144.91 185.37, 130.98 188.75, 116.94 189.32 C102.89 189.89, 86.92 188.38, 73.4 184.06 C59.88 179.73, 46.2 171.44, 35.82 163.39 C25.44 155.35, 17.08 146.4, 11.13 135.81 C5.18 125.22, 1.1 111.81, 0.12 99.84 C-0.86 87.87, 0.79 75.2, 5.27 63.99 C9.74 52.79, 17.5 41.67, 26.98 32.59 C36.46 23.51, 49.47 14.92, 62.15 9.49 C74.83 4.07, 93.04 1.44, 103.06 0.03 C113.09 -1.38, 118.09 0.61, 122.28 1.01 C126.46 1.42, 128.37 0.99, 128.18 2.46 M88.78 2.69 C101.99 -0.91, 120.44 -0.14, 134.35 1.77 C148.26 3.68, 160.72 7.62, 172.24 14.18 C183.76 20.73, 195.32 31.4, 203.49 41.11 C211.65 50.83, 217.77 61.15, 221.24 72.48 C224.71 83.8, 226.28 97.32, 224.29 109.06 C222.3 120.79, 216.56 132.62, 209.28 142.91 C202 153.2, 191.83 163.52, 180.6 170.81 C169.36 178.1, 155.94 183.67, 141.86 186.64 C127.79 189.61, 110.64 190.19, 96.17 188.64 C81.71 187.1, 67.19 183.25, 55.07 177.4 C42.95 171.54, 31.71 162.91, 23.45 153.53 C15.2 144.15, 9.12 132.57, 5.55 121.12 C1.98 109.67, 0.72 96.71, 2.03 84.83 C3.35 72.96, 6.95 60.37, 13.44 49.87 C19.92 39.37, 30.1 29.54, 40.94 21.84 C51.77 14.15, 70.1 6.79, 78.47 3.68 C86.84 0.57, 88.89 3.12, 91.14 3.19 C93.38 3.26, 91.72 2.73, 91.94 4.09" stroke="#000000" stroke-width="1" fill="none"></path></g><g transform="translate(129 526.3333333333334) rotate(0 47.5 13)"><text x="0" y="18" font-family="Virgil, Segoe UI Emoji" font-size="20px" fill="#000000" text-anchor="start" style="white-space: pre;" direction="ltr">Sequencer</text></g><g stroke-linecap="round" transform="translate(488 406.3333333333333) rotate(0 70 55.5)"><path d="M96.82 5.41 C106.61 7.74, 116.81 13.82, 123.94 20.5 C131.07 27.17, 137.64 36.73, 139.6 45.48 C141.55 54.23, 139.33 64.75, 135.67 73 C132.01 81.26, 125.75 89.05, 117.64 95.01 C109.53 100.97, 97.82 106.49, 87.01 108.76 C76.2 111.02, 63.57 110.53, 52.79 108.58 C42 106.64, 30.47 102.92, 22.31 97.1 C14.15 91.28, 7.32 81.83, 3.82 73.65 C0.32 65.48, -0.38 56.71, 1.29 48.03 C2.95 39.36, 7.36 28.92, 13.83 21.6 C20.3 14.28, 29.8 7.59, 40.11 4.14 C50.42 0.68, 65.17 0.55, 75.67 0.86 C86.17 1.18, 97.79 4.45, 103.11 6.02 C108.42 7.59, 108.15 9.28, 107.55 10.29 M74.86 1.12 C85.31 0.53, 96.15 3.01, 105.61 7.4 C115.08 11.78, 125.79 19.68, 131.68 27.45 C137.56 35.22, 140.75 45.13, 140.92 54.01 C141.08 62.9, 137.83 72.82, 132.65 80.78 C127.48 88.75, 118.74 96.79, 109.86 101.81 C100.99 106.82, 90.16 110.08, 79.41 110.86 C68.66 111.65, 55.8 109.91, 45.39 106.5 C34.97 103.09, 24.34 97.32, 16.93 90.42 C9.51 83.53, 3.06 73.56, 0.89 65.14 C-1.29 56.71, 0.68 48.23, 3.89 39.87 C7.09 31.51, 12.42 21.25, 20.12 14.98 C27.82 8.71, 41.24 4.88, 50.1 2.24 C58.97 -0.4, 69.51 -0.59, 73.31 -0.86 C77.11 -1.12, 73.08 -0.18, 72.92 0.66" stroke="#000000" stroke-width="1" fill="none"></path></g><g transform="translate(525 449.3333333333333) rotate(0 31.5 12)"><text x="0" y="17" font-family="Virgil, Segoe UI Emoji" font-size="18.461538461538414px" fill="#000000" text-anchor="start" style="white-space: pre;" direction="ltr">Verifier</text></g><g stroke-linecap="round" transform="translate(439 557.8333333333334) rotate(0 70 55.5)"><path d="M98.36 4.56 C108.5 7.12, 118.2 14.68, 124.85 21.62 C131.51 28.56, 136.23 37.45, 138.3 46.19 C140.36 54.93, 140.83 65.69, 137.23 74.06 C133.64 82.44, 125.14 90.47, 116.74 96.45 C108.34 102.43, 97.3 107.64, 86.85 109.95 C76.39 112.25, 64.83 112.69, 54 110.3 C43.17 107.91, 30.22 101.87, 21.88 95.62 C13.55 89.36, 7.57 80.86, 4 72.79 C0.43 64.72, -1.45 55.69, 0.47 47.19 C2.39 38.7, 8.62 29, 15.51 21.82 C22.41 14.64, 31.75 7.58, 41.83 4.11 C51.9 0.64, 65.31 0.52, 75.94 1 C86.57 1.48, 99.65 5.13, 105.6 6.99 C111.55 8.85, 112.15 11.43, 111.63 12.14 M60.82 1.84 C71.15 0.11, 85.75 1.48, 96.34 4.51 C106.92 7.53, 117.37 13.4, 124.33 19.99 C131.29 26.59, 136.14 35.5, 138.09 44.09 C140.04 52.68, 139.01 63, 136.05 71.52 C133.09 80.05, 127.79 89.02, 120.32 95.22 C112.85 101.42, 101.96 106.53, 91.24 108.71 C80.52 110.9, 67.1 110.14, 56.01 108.33 C44.92 106.53, 33.05 103.51, 24.68 97.88 C16.31 92.25, 10.03 82.51, 5.79 74.53 C1.54 66.54, -2.11 58.56, -0.78 49.96 C0.55 41.37, 6.89 30.34, 13.75 22.96 C20.61 15.57, 32.57 9.59, 40.4 5.65 C48.23 1.71, 57.33 0.07, 60.71 -0.71 C64.09 -1.48, 60.47 -0.12, 60.67 1.01" stroke="#000000" stroke-width="1" fill="none"></path></g><g transform="translate(476 599.3333333333334) rotate(0 34 25.5)"><text x="34" y="18.5" font-family="Virgil, Segoe UI Emoji" font-size="20px" fill="#000000" text-anchor="middle" style="white-space: pre;" direction="ltr">Verifier</text><text x="34" y="44" font-family="Virgil, Segoe UI Emoji" font-size="20px" fill="#000000" text-anchor="middle" style="white-space: pre;" direction="ltr"></text></g><g stroke-linecap="round" transform="translate(296 665.8333333333334) rotate(0 70 55.5)"><path d="M71.1 0.38 C81.77 -0.25, 94.96 3.55, 104.63 7.75 C114.29 11.96, 123.36 18.11, 129.09 25.61 C134.82 33.11, 138.16 43.76, 138.99 52.73 C139.82 61.7, 138.51 71.61, 134.06 79.41 C129.61 87.2, 121.29 94.31, 112.3 99.5 C103.3 104.7, 90.91 109.22, 80.09 110.58 C69.26 111.94, 57.66 110.69, 47.34 107.68 C37.02 104.67, 25.84 99.15, 18.16 92.51 C10.48 85.86, 3.82 76.38, 1.25 67.83 C-1.33 59.27, -0.34 49.48, 2.71 41.17 C5.77 32.86, 12 24.4, 19.6 17.97 C27.2 11.54, 39.34 5.47, 48.33 2.59 C57.31 -0.29, 68.97 0.77, 73.49 0.69 C78.01 0.62, 75.48 1.39, 75.46 2.15 M63.89 0.62 C74.37 -0.91, 88.2 1.28, 98.25 4.79 C108.3 8.3, 117.35 14.65, 124.18 21.69 C131.01 28.74, 137.2 38.32, 139.22 47.06 C141.25 55.8, 139.95 66.01, 136.3 74.13 C132.66 82.25, 125.4 89.85, 117.36 95.78 C109.32 101.71, 98.52 107.6, 88.06 109.7 C77.59 111.81, 65.47 110.75, 54.57 108.42 C43.67 106.09, 30.83 101.23, 22.66 95.7 C14.49 90.17, 8.99 83.26, 5.55 75.23 C2.11 67.2, 0.59 56.51, 2.01 47.52 C3.43 38.53, 7.45 28.12, 14.07 21.27 C20.7 14.43, 33.35 9.73, 41.74 6.45 C50.12 3.17, 60.63 2.55, 64.39 1.59 C68.16 0.64, 64.47 0.07, 64.33 0.72" stroke="#000000" stroke-width="1" fill="none"></path></g><g transform="translate(327 709.3333333333334) rotate(0 34 13)"><text x="34" y="18" font-family="Virgil, Segoe UI Emoji" font-size="20px" fill="#000000" text-anchor="middle" style="white-space: pre;" direction="ltr">Verifier</text></g><g stroke-linecap="round"><g stroke-opacity="0.5" fill-opacity="0.5" transform="translate(319.33676462800497 676.7914547627564) rotate(0 -32.26109995284099 -31.42130270589223)"><path d="M-0.43 -0.16 C-11.28 -10.43, -54.53 -50.48, -65.21 -60.79 M1.55 -1.28 C-9.44 -12, -55 -52.71, -66.07 -62.69" stroke="#000000" stroke-width="1" fill="none"></path></g><g stroke-opacity="0.5" fill-opacity="0.5" transform="translate(319.33676462800497 676.7914547627564) rotate(0 -32.26109995284099 -31.42130270589223)"><path d="M-38.5 -51.21 C-45.76 -53.46, -55.99 -58.8, -67.45 -60.69 M-38.35 -51.93 C-48.32 -54.59, -58.74 -58.87, -65.75 -63.09" stroke="#000000" stroke-width="1" fill="none"></path></g><g stroke-opacity="0.5" fill-opacity="0.5" transform="translate(319.33676462800497 676.7914547627564) rotate(0 -32.26109995284099 -31.42130270589223)"><path d="M-52.22 -35.94 C-55.56 -42.62, -61.78 -52.43, -67.45 -60.69 M-52.07 -36.66 C-57.01 -45.09, -62.3 -55.09, -65.75 -63.09" stroke="#000000" stroke-width="1" fill="none"></path></g></g><g stroke-linecap="round"><g stroke-opacity="0.5" fill-opacity="0.5" transform="translate(433.81805301536815 592.9673697709292) rotate(0 -75.50965357049836 -15.155548130411887)"><path d="M-1.09 -0.22 C-26.16 -5.17, -126.09 -23.64, -151.02 -28.54 M0.53 -1.38 C-24.56 -6.13, -126.32 -25.6, -151.55 -30.09" stroke="#000000" stroke-width="1" fill="none"></path></g><g stroke-opacity="0.5" fill-opacity="0.5" transform="translate(433.81805301536815 592.9673697709292) rotate(0 -75.50965357049836 -15.155548130411887)"><path d="M-122.33 -33.71 C-127.38 -32.21, -136.49 -34.83, -151.62 -28.22 M-121.6 -35.28 C-128.98 -34.33, -135.98 -32.19, -151.26 -30.52" stroke="#000000" stroke-width="1" fill="none"></path></g><g stroke-opacity="0.5" fill-opacity="0.5" transform="translate(433.81805301536815 592.9673697709292) rotate(0 -75.50965357049836 -15.155548130411887)"><path d="M-126.07 -13.53 C-130.4 -16.97, -138.58 -24.56, -151.62 -28.22 M-125.35 -15.1 C-131.93 -18.67, -138.09 -21.05, -151.26 -30.52" stroke="#000000" stroke-width="1" fill="none"></path></g></g><g stroke-linecap="round"><g stroke-opacity="0.5" fill-opacity="0.5" transform="translate(483.95435920814634 465.31863856252704) rotate(0 -99.85507852039638 25.447730451451662)"><path d="M-1.15 0.7 C-34.64 9.15, -167.15 41.43, -200.16 49.84 M0.45 0.02 C-32.75 8.66, -164.57 42.71, -197.99 50.87" stroke="#000000" stroke-width="1" fill="none"></path></g><g stroke-opacity="0.5" fill-opacity="0.5" transform="translate(483.95435920814634 465.31863856252704) rotate(0 -99.85507852039638 25.447730451451662)"><path d="M-172 32.33 C-183.99 39.84, -190.91 47.28, -197.49 48.88 M-172.59 34.67 C-177.58 37.55, -183.77 40.75, -198.05 51.56" stroke="#000000" stroke-width="1" fill="none"></path></g><g stroke-opacity="0.5" fill-opacity="0.5" transform="translate(483.95435920814634 465.31863856252704) rotate(0 -99.85507852039638 25.447730451451662)"><path d="M-166.98 52.23 C-180.67 52.38, -189.43 52.52, -197.49 48.88 M-167.57 54.57 C-173.72 53.34, -180.96 52.39, -198.05 51.56" stroke="#000000" stroke-width="1" fill="none"></path></g></g><g stroke-linecap="round"><g stroke-opacity="0.2" fill-opacity="0.2" transform="translate(177 449.3333333333333) rotate(0 -0.6764077171171152 -77.3652216948569)"><path d="M-1.01 0.46 C-1.37 -25.53, -2.01 -129.34, -2.01 -155.19 M0.66 -0.34 C0.64 -26.21, 0.58 -127.68, 0.17 -153.76" stroke="#000000" stroke-width="1" fill="none"></path></g><g stroke-opacity="0.2" fill-opacity="0.2" transform="translate(177 449.3333333333333) rotate(0 -0.6764077171171152 -77.3652216948569)"><path d="M11.4 -127.32 C6.86 -134.58, 4.52 -145.35, 0.27 -154.31 M10.75 -125.1 C7.07 -136.3, 3.46 -145.72, -0.53 -153.43" stroke="#000000" stroke-width="1" fill="none"></path></g><g stroke-opacity="0.2" fill-opacity="0.2" transform="translate(177 449.3333333333333) rotate(0 -0.6764077171171152 -77.3652216948569)"><path d="M-9.12 -127.17 C-7.23 -134.31, -3.13 -145.12, 0.27 -154.31 M-9.77 -124.96 C-5.89 -136.13, -1.95 -145.61, -0.53 -153.43" stroke="#000000" stroke-width="1" fill="none"></path></g></g><g stroke-linecap="round"><g stroke-opacity="0.4" fill-opacity="0.4" transform="translate(178 294.3333333333333) rotate(0 -1.0276632059598683 78.20938511284533)"><path d="M1.1 -1.15 C0.92 24.94, -1.57 130.02, -2.14 156.02 M0.22 0.86 C-0.04 27.2, -2.59 131.78, -3.16 157.57" stroke="#000000" stroke-width="1" fill="none"></path></g><g stroke-opacity="0.4" fill-opacity="0.4" transform="translate(178 294.3333333333333) rotate(0 -1.0276632059598683 78.20938511284533)"><path d="M-14.69 128.92 C-10.79 134.67, -10.63 140.36, -3.24 157.89 M-12.85 129.02 C-10.45 138.05, -6.17 146.64, -2.54 157.37" stroke="#000000" stroke-width="1" fill="none"></path></g><g stroke-opacity="0.4" fill-opacity="0.4" transform="translate(178 294.3333333333333) rotate(0 -1.0276632059598683 78.20938511284533)"><path d="M5.83 129.4 C5.33 135.23, 1.11 140.82, -3.24 157.89 M7.67 129.49 C3.85 138.52, 1.91 146.97, -2.54 157.37" stroke="#000000" stroke-width="1" fill="none"></path></g></g><g stroke-linecap="round"><g stroke-opacity="0.4" fill-opacity="0.4" transform="translate(227.8267388414406 296.93817177398324) rotate(0 134.04392508650676 64.45651716813444)"><path d="M0.9 -0.64 C45.54 20.79, 223.54 107.95, 268.17 129.56 M-0.09 1.64 C44.37 22.61, 222.5 106.22, 267.23 127.65" stroke="#000000" stroke-width="1" fill="none"></path></g><g stroke-opacity="0.4" fill-opacity="0.4" transform="translate(227.8267388414406 296.93817177398324) rotate(0 134.04392508650676 64.45651716813444)"><path d="M236.29 124.86 C247.81 126.48, 256.62 126.89, 268.01 126.64 M237.15 124.45 C246.78 125.35, 257.86 127.69, 267.09 128.03" stroke="#000000" stroke-width="1" fill="none"></path></g><g stroke-opacity="0.4" fill-opacity="0.4" transform="translate(227.8267388414406 296.93817177398324) rotate(0 134.04392508650676 64.45651716813444)"><path d="M245.07 106.32 C253.88 114.04, 259.83 120.48, 268.01 126.64 M245.94 105.9 C252.42 113.1, 260.49 121.79, 267.09 128.03" stroke="#000000" stroke-width="1" fill="none"></path></g></g><g stroke-linecap="round"><g stroke-opacity="0.4" fill-opacity="0.4" transform="translate(228.70102499793268 297.31431584536415) rotate(0 113.654539425042 135.9470833592508)"><path d="M0.12 1.01 C38.18 46.42, 190.56 226.42, 228.59 271.4 M-1.28 0.49 C36.65 45.62, 189.79 224.16, 227.95 269.43" stroke="#000000" stroke-width="1" fill="none"></path></g><g stroke-opacity="0.4" fill-opacity="0.4" transform="translate(228.70102499793268 297.31431584536415) rotate(0 113.654539425042 135.9470833592508)"><path d="M203.55 255.61 C210.54 259.83, 218.05 265.75, 229.95 271.29 M201.19 254.48 C210.74 259.24, 219.17 264.86, 228.8 268.73" stroke="#000000" stroke-width="1" fill="none"></path></g><g stroke-opacity="0.4" fill-opacity="0.4" transform="translate(228.70102499793268 297.31431584536415) rotate(0 113.654539425042 135.9470833592508)"><path d="M219.18 242.31 C221.07 250.79, 223.58 260.95, 229.95 271.29 M216.82 241.18 C221.15 250.56, 224.25 260.71, 228.8 268.73" stroke="#000000" stroke-width="1" fill="none"></path></g></g><g stroke-linecap="round"><g stroke-opacity="0.4" fill-opacity="0.4" transform="translate(225.29091854141473 297.3274672834979) rotate(0 68.70608850103224 183.01358199828945)"><path d="M-1.14 -0.19 C22.03 61.06, 115.42 306.13, 138.55 367.36 M0.47 -1.34 C23.61 59.55, 115.38 303.74, 138.11 365.4" stroke="#000000" stroke-width="1" fill="none"></path></g><g stroke-opacity="0.4" fill-opacity="0.4" transform="translate(225.29091854141473 297.3274672834979) rotate(0 68.70608850103224 183.01358199828945)"><path d="M118.33 344.2 C124.21 348.79, 129.04 353.52, 136.94 364.96 M119.16 342.77 C123.56 348.58, 128.33 354.54, 138.65 365.66" stroke="#000000" stroke-width="1" fill="none"></path></g><g stroke-opacity="0.4" fill-opacity="0.4" transform="translate(225.29091854141473 297.3274672834979) rotate(0 68.70608850103224 183.01358199828945)"><path d="M137.56 337.03 C138.41 343.31, 138.22 349.91, 136.94 364.96 M138.38 335.61 C138.19 342.99, 138.33 350.68, 138.65 365.66" stroke="#000000" stroke-width="1" fill="none"></path></g></g><g stroke-linecap="round"><g stroke-opacity="0.3" fill-opacity="0.3" transform="translate(546 294.3333333333333) rotate(0 4.906519646081165 55.35983598281166)"><path d="M-0.04 -0.18 C1.66 18.65, 9.45 93.62, 11.34 112.04 M-1.52 -1.32 C-0.05 17.28, 8.54 91.7, 10.57 110.47" stroke="#000000" stroke-width="1" fill="none"></path></g><g stroke-opacity="0.3" fill-opacity="0.3" transform="translate(546 294.3333333333333) rotate(0 4.906519646081165 55.35983598281166)"><path d="M-3.06 84.15 C4 94.62, 6.39 105.65, 9.55 111.24 M-3.65 83.89 C1.96 91.74, 6.78 101.36, 10.95 109.93" stroke="#000000" stroke-width="1" fill="none"></path></g><g stroke-opacity="0.3" fill-opacity="0.3" transform="translate(546 294.3333333333333) rotate(0 4.906519646081165 55.35983598281166)"><path d="M17.33 81.87 C16.37 93.23, 10.74 105.15, 9.55 111.24 M16.74 81.61 C15.84 90.33, 14.12 100.68, 10.95 109.93" stroke="#000000" stroke-width="1" fill="none"></path></g></g><g stroke-linecap="round"><g stroke-opacity="0.3" fill-opacity="0.3" transform="translate(556.9652177847556 402.3174795135656) rotate(0 -4.3054391135272 -53.45055115192443)"><path d="M0.22 -1.01 C-1.14 -18.91, -6.46 -88.72, -8.08 -106.24 M-1.12 1.08 C-2.61 -16.65, -7.83 -89.78, -8.84 -107.98" stroke="#000000" stroke-width="1" fill="none"></path></g><g stroke-opacity="0.3" fill-opacity="0.3" transform="translate(556.9652177847556 402.3174795135656) rotate(0 -4.3054391135272 -53.45055115192443)"><path d="M1.54 -79.9 C0.49 -90.66, -3.09 -99.03, -10.14 -109.46 M3.47 -79.99 C-0.2 -87.43, -3.76 -94.82, -8.19 -107.61" stroke="#000000" stroke-width="1" fill="none"></path></g><g stroke-opacity="0.3" fill-opacity="0.3" transform="translate(556.9652177847556 402.3174795135656) rotate(0 -4.3054391135272 -53.45055115192443)"><path d="M-18.93 -78.57 C-13.71 -89.78, -11.01 -98.56, -10.14 -109.46 M-17.01 -78.66 C-15 -86.59, -12.9 -94.35, -8.19 -107.61" stroke="#000000" stroke-width="1" fill="none"></path></g></g><g transform="translate(14.888888888888914 10) rotate(0 251 13)"><text x="0" y="18" font-family="Virgil, Segoe UI Emoji" font-size="20px" fill="#000000" text-anchor="start" style="white-space: pre;" direction="ltr">The Optimistic Ethereum architecture in a nutshell</text></g><g transform="translate(462.44444444444434 312.6666666666667) rotate(0 86.5 13)"><text x="0" y="18" font-family="Virgil, Segoe UI Emoji" font-size="20px" fill="#000000" text-anchor="start" style="white-space: pre;" direction="ltr">submit challenges!</text></g><g transform="translate(233.55555555555566 317.1111111111113) rotate(0 79 13)"><text x="0" y="18" font-family="Virgil, Segoe UI Emoji" font-size="20px" fill="#000000" text-anchor="start" style="white-space: pre;" direction="ltr">download blocks!</text></g><g transform="translate(59.11111111111131 317.11111111111114) rotate(0 67.5 13)"><text x="0" y="18" font-family="Virgil, Segoe UI Emoji" font-size="20px" fill="#000000" text-anchor="start" style="white-space: pre;" direction="ltr">publish blocks!</text></g><g transform="translate(140.2222222222224 649.3333333333335) rotate(0 91 13)"><text x="0" y="18" font-family="Virgil, Segoe UI Emoji" font-size="20px" fill="#000000" text-anchor="start" style="white-space: pre;" direction="ltr">send transactions!</text></g></svg>